<?xml version="1.0" encoding="utf-8"?>
<!-- Generator: Adobe Illustrator 24.1.3, SVG Export Plug-In . SVG Version: 6.00 Build 0)  -->
<svg version="1.1" id="Capa_1" xmlns="http://www.w3.org/2000/svg" xmlns:xlink="http://www.w3.org/1999/xlink" x="0px" y="0px"
	 viewBox="0 0 261.8 226.7" style="enable-background:new 0 0 261.8 226.7;" xml:space="preserve">
<style type="text/css">
	.st0{clip-path:url(#SVGID_2_);fill:#F9C510;}
	.st1{clip-path:url(#SVGID_2_);fill:#FAE922;}
	.st2{clip-path:url(#SVGID_2_);fill:#F59E25;}
	.st3{clip-path:url(#SVGID_2_);fill:#63398D;}
	.st4{clip-path:url(#SVGID_2_);fill:#3C4E9B;}
	.st5{clip-path:url(#SVGID_2_);fill:#CD3088;}
	.st6{clip-path:url(#SVGID_2_);fill:#1C6EB5;}
	.st7{clip-path:url(#SVGID_2_);fill:#E5341F;}
	.st8{clip-path:url(#SVGID_2_);fill:#EB6520;}
	.st9{clip-path:url(#SVGID_2_);fill:#35B4A7;}
	.st10{clip-path:url(#SVGID_2_);fill:#82BA26;}
	.st11{clip-path:url(#SVGID_2_);fill:#34A836;}
	.st12{clip-path:url(#SVGID_2_);}
	.st13{clip-path:url(#SVGID_2_);fill:#FDF6F3;}
</style>
<g>
	<defs>
		<path id="SVGID_1_" d="M5.4,113.3c0,59.3,49.3,98,125.5,98c76.2,0,125.5-38.7,125.5-98c0-59.3-49.5-98-125.5-98
			C54.9,15.3,5.4,54,5.4,113.3"/>
	</defs>
	<clipPath id="SVGID_2_">
		<use xlink:href="#SVGID_1_"  style="overflow:visible;"/>
	</clipPath>
	<path class="st0" d="M256.5,113.3c0,21.7-5.6,43.4-16.8,62.7l0,0l-108.9-62.8l125.7-0.1L256.5,113.3z"/>
	<path class="st1" d="M239.7,176c-5.4,9.3-12,18.1-20,26c-7.9,8-16.7,14.6-26,20l-1.8-3.1c-0.6-1.1-1.3-2.3-2-3.4l-1.1-1.8
		c-0.6-1.1-1.3-2.2-1.9-3.3l-0.3-0.6c-0.5-0.9-1-1.8-1.6-2.7l-3.7-6.4c-0.1-0.1-0.2-0.3-0.2-0.4l-2.8-4.9c-0.2-0.4-0.5-0.9-0.8-1.3
		l-46.7-80.8l68.1,39.3L239.7,176z"/>
	<path class="st2" d="M239.7,50.3L239.7,50.3c11.2,19.3,16.8,41,16.8,62.7l0,0.1h0l-34.2,0l-91.4,0.1L239.7,50.3z"/>
	<path class="st3" d="M68,4.4L68,4.4l23.5,40.7l39.4,68.1L22,50.5l0,0c5.4-9.3,12-18.1,20-26C49.9,16.5,58.7,9.8,68,4.4L68,4.4
		L68,4.4z"/>
	<path class="st4" d="M130.9,113.2L5.2,113.3l0-0.1c0-21.7,5.6-43.4,16.8-62.7l40.7,23.5L130.9,113.2z"/>
	<path class="st5" d="M130.7-12.4l0.1,0v0v0l0,47l0,78.6L68,4.4C87.3-6.8,109-12.4,130.7-12.4"/>
	<path class="st6" d="M130.9,113.2L22.1,176.1l0,0c-11.2-19.3-16.8-41-16.8-62.7l0-0.1h0l47,0v0L130.9,113.2z"/>
	<path class="st7" d="M193.6,4.4L193.6,4.4L193.6,4.4l-23.5,40.7h0l-39.3,68.1l-0.1-125.7l0.1,0C152.6-12.4,174.3-6.8,193.6,4.4"/>
	<path class="st8" d="M219.7,24.3c8,7.9,14.6,16.7,20,26l0,0l0,0L199,73.9l-68.1,39.4L193.6,4.4l0,0
		C202.9,9.7,211.7,16.4,219.7,24.3"/>
	<path class="st9" d="M130.9,113.2L68.1,222.1c0,0,0,0,0,0c-9.3-5.4-18.1-12-26-20c-8-7.9-14.6-16.7-20-26l40.7-23.5L130.9,113.2z"
		/>
	<path class="st10" d="M130.9,113.2l39.4,68.1c0.3,0.5,0.6,1,0.9,1.5l2.3,4c1.1,1.8,2.1,3.6,3,5.2l2.8,4.9c0.3,0.5,0.6,1,0.9,1.5
		l2.6,4.5c0.1,0.1,0.1,0.2,0.2,0.4l10.8,18.6v0h0c-19.3,11.2-41,16.8-62.7,16.8l-0.1,0L130.9,113.2z"/>
	<path class="st11" d="M130.9,113.2l0.1,125.7l-0.1,0c-21.7,0-43.4-5.6-62.7-16.8c5.7-9.9,11.8-20.5,23.5-40.7L130.9,113.2z"/>
	<path class="st12" d="M196.1,112.8c0,35.4-28.7,64-64,64s-64-28.7-64-64c0-5.9,0.8-11.5,2.2-16.9c5.2,3.6,11.5,5.8,18.3,5.8
		c17.6,0,31.9-14.3,31.9-32c0-6.9-2.2-13.3-5.9-18.4c5.5-1.5,11.3-2.4,17.3-2.4C167.5,48.8,196.1,77.4,196.1,112.8"/>
	<path class="st13" d="M108.2,68.9c0,1.3-0.1,2.6-0.4,3.9c-0.3,1.3-0.6,2.5-1.1,3.8c-0.5,1.2-1.1,2.4-1.9,3.5
		c-0.7,1.1-1.6,2.1-2.5,3.1c-0.9,0.9-2,1.8-3.1,2.5c-1.1,0.7-2.2,1.3-3.5,1.9c-1.2,0.5-2.5,0.9-3.8,1.2c-1.3,0.3-2.6,0.4-3.9,0.4
		c-1.3,0-2.6-0.1-3.9-0.4c-1.3-0.3-2.5-0.6-3.8-1.2c-1.2-0.5-2.4-1.1-3.5-1.9c-1.1-0.7-2.1-1.6-3-2.5c-0.9-0.9-1.8-2-2.5-3.1
		c-0.7-1.1-1.3-2.3-1.9-3.5c-0.5-1.2-0.9-2.5-1.1-3.8c-0.3-1.3-0.4-2.6-0.4-3.9c0-1.3,0.1-2.6,0.4-3.9c0.3-1.3,0.6-2.5,1.1-3.8
		c0.5-1.2,1.1-2.4,1.9-3.5c0.7-1.1,1.6-2.1,2.5-3.1c0.9-0.9,1.9-1.8,3-2.5c1.1-0.7,2.3-1.4,3.5-1.9c1.2-0.5,2.5-0.9,3.8-1.2
		c1.3-0.3,2.6-0.4,3.9-0.4c1.3,0,2.6,0.1,3.9,0.4c1.3,0.3,2.5,0.6,3.8,1.2c1.2,0.5,2.4,1.1,3.5,1.9c1.1,0.7,2.1,1.6,3.1,2.5
		c0.9,0.9,1.8,2,2.5,3.1c0.7,1.1,1.3,2.2,1.9,3.5c0.5,1.2,0.9,2.5,1.1,3.8C108.1,66.2,108.2,67.5,108.2,68.9"/>
</g>
</svg>
